<mxfile host="app.diagrams.net" agent="Mozilla/5.0 (Windows NT 10.0; Win64; x64) AppleWebKit/537.36 (KHTML, like Gecko) Chrome/129.0.0.0 Safari/537.36 Edg/129.0.0.0" version="24.7.17">
  <diagram name="Page-1" id="MKPcX7KkskO_5K4Q8eHA">
    <mxGraphModel dx="1719" dy="870" grid="1" gridSize="10" guides="1" tooltips="1" connect="1" arrows="1" fold="1" page="1" pageScale="1" pageWidth="4681" pageHeight="3300" math="0" shadow="0">
      <root>
        <mxCell id="0" />
        <mxCell id="1" parent="0" />
        <mxCell id="lNw_zsDrJID7kH2GZln8-4" style="edgeStyle=orthogonalEdgeStyle;rounded=0;orthogonalLoop=1;jettySize=auto;html=1;entryX=0.5;entryY=0;entryDx=0;entryDy=0;" edge="1" parent="1" source="lNw_zsDrJID7kH2GZln8-2" target="lNw_zsDrJID7kH2GZln8-3">
          <mxGeometry relative="1" as="geometry" />
        </mxCell>
        <mxCell id="lNw_zsDrJID7kH2GZln8-2" value="START" style="strokeWidth=2;html=1;shape=mxgraph.flowchart.start_1;whiteSpace=wrap;" vertex="1" parent="1">
          <mxGeometry x="830" y="187" width="100" height="60" as="geometry" />
        </mxCell>
        <mxCell id="lNw_zsDrJID7kH2GZln8-8" style="edgeStyle=orthogonalEdgeStyle;rounded=0;orthogonalLoop=1;jettySize=auto;html=1;entryX=0.5;entryY=0;entryDx=0;entryDy=0;" edge="1" parent="1" source="lNw_zsDrJID7kH2GZln8-3" target="lNw_zsDrJID7kH2GZln8-6">
          <mxGeometry relative="1" as="geometry" />
        </mxCell>
        <mxCell id="lNw_zsDrJID7kH2GZln8-3" value="lastPrimeNumber(a, left, right)" style="rounded=1;whiteSpace=wrap;html=1;absoluteArcSize=1;arcSize=14;strokeWidth=2;" vertex="1" parent="1">
          <mxGeometry x="785" y="282" width="190" height="38" as="geometry" />
        </mxCell>
        <mxCell id="lNw_zsDrJID7kH2GZln8-7" value="" style="group" vertex="1" connectable="0" parent="1">
          <mxGeometry x="830" y="360" width="100" height="30" as="geometry" />
        </mxCell>
        <mxCell id="lNw_zsDrJID7kH2GZln8-5" value="" style="verticalLabelPosition=bottom;verticalAlign=top;html=1;shape=hexagon;perimeter=hexagonPerimeter2;arcSize=6;size=0.1;" vertex="1" parent="lNw_zsDrJID7kH2GZln8-7">
          <mxGeometry width="100" height="30" as="geometry" />
        </mxCell>
        <mxCell id="lNw_zsDrJID7kH2GZln8-6" value="left &amp;gt; right" style="text;html=1;align=center;verticalAlign=middle;whiteSpace=wrap;rounded=0;" vertex="1" parent="lNw_zsDrJID7kH2GZln8-7">
          <mxGeometry x="10" width="80" height="30" as="geometry" />
        </mxCell>
        <mxCell id="lNw_zsDrJID7kH2GZln8-9" value="" style="group" vertex="1" connectable="0" parent="1">
          <mxGeometry x="1000" y="400" width="100" height="30" as="geometry" />
        </mxCell>
        <mxCell id="lNw_zsDrJID7kH2GZln8-10" value="" style="verticalLabelPosition=bottom;verticalAlign=top;html=1;shape=hexagon;perimeter=hexagonPerimeter2;arcSize=6;size=0.1;" vertex="1" parent="lNw_zsDrJID7kH2GZln8-9">
          <mxGeometry width="100" height="30" as="geometry" />
        </mxCell>
        <mxCell id="lNw_zsDrJID7kH2GZln8-11" value="left &amp;gt; right" style="text;html=1;align=center;verticalAlign=middle;whiteSpace=wrap;rounded=0;" vertex="1" parent="lNw_zsDrJID7kH2GZln8-9">
          <mxGeometry x="10" width="80" height="30" as="geometry" />
        </mxCell>
        <mxCell id="lNw_zsDrJID7kH2GZln8-12" style="edgeStyle=orthogonalEdgeStyle;rounded=0;orthogonalLoop=1;jettySize=auto;html=1;exitX=1;exitY=0.5;exitDx=0;exitDy=0;entryX=0.5;entryY=0;entryDx=0;entryDy=0;" edge="1" parent="1" source="lNw_zsDrJID7kH2GZln8-5" target="lNw_zsDrJID7kH2GZln8-11">
          <mxGeometry relative="1" as="geometry" />
        </mxCell>
        <mxCell id="lNw_zsDrJID7kH2GZln8-18" style="edgeStyle=orthogonalEdgeStyle;rounded=0;orthogonalLoop=1;jettySize=auto;html=1;entryX=0.5;entryY=0;entryDx=0;entryDy=0;" edge="1" parent="1" source="lNw_zsDrJID7kH2GZln8-13" target="lNw_zsDrJID7kH2GZln8-17">
          <mxGeometry relative="1" as="geometry" />
        </mxCell>
        <mxCell id="lNw_zsDrJID7kH2GZln8-13" value="result [0] = right" style="rounded=1;whiteSpace=wrap;html=1;absoluteArcSize=1;arcSize=14;strokeWidth=2;" vertex="1" parent="1">
          <mxGeometry x="900" y="476.78" width="100" height="38" as="geometry" />
        </mxCell>
        <mxCell id="lNw_zsDrJID7kH2GZln8-14" style="edgeStyle=orthogonalEdgeStyle;rounded=0;orthogonalLoop=1;jettySize=auto;html=1;entryX=0.5;entryY=0;entryDx=0;entryDy=0;" edge="1" parent="1" source="lNw_zsDrJID7kH2GZln8-11" target="lNw_zsDrJID7kH2GZln8-13">
          <mxGeometry relative="1" as="geometry" />
        </mxCell>
        <mxCell id="lNw_zsDrJID7kH2GZln8-15" value="lastPrimeNUmber(a, left, right - 1)" style="rounded=1;whiteSpace=wrap;html=1;absoluteArcSize=1;arcSize=14;strokeWidth=2;" vertex="1" parent="1">
          <mxGeometry x="1120" y="476.78" width="190" height="38" as="geometry" />
        </mxCell>
        <mxCell id="lNw_zsDrJID7kH2GZln8-16" style="edgeStyle=orthogonalEdgeStyle;rounded=0;orthogonalLoop=1;jettySize=auto;html=1;exitX=1;exitY=0.5;exitDx=0;exitDy=0;entryX=0.5;entryY=0;entryDx=0;entryDy=0;" edge="1" parent="1" source="lNw_zsDrJID7kH2GZln8-10" target="lNw_zsDrJID7kH2GZln8-15">
          <mxGeometry relative="1" as="geometry" />
        </mxCell>
        <mxCell id="lNw_zsDrJID7kH2GZln8-17" value="result [1] = a[right]" style="rounded=1;whiteSpace=wrap;html=1;absoluteArcSize=1;arcSize=14;strokeWidth=2;" vertex="1" parent="1">
          <mxGeometry x="895" y="560" width="110" height="38" as="geometry" />
        </mxCell>
        <mxCell id="lNw_zsDrJID7kH2GZln8-23" style="edgeStyle=orthogonalEdgeStyle;rounded=0;orthogonalLoop=1;jettySize=auto;html=1;entryX=0.5;entryY=0;entryDx=0;entryDy=0;" edge="1" parent="1" source="lNw_zsDrJID7kH2GZln8-19" target="lNw_zsDrJID7kH2GZln8-21">
          <mxGeometry relative="1" as="geometry" />
        </mxCell>
        <mxCell id="lNw_zsDrJID7kH2GZln8-19" value="result [0] = -1" style="rounded=1;whiteSpace=wrap;html=1;absoluteArcSize=1;arcSize=14;strokeWidth=2;" vertex="1" parent="1">
          <mxGeometry x="690" y="420" width="100" height="38" as="geometry" />
        </mxCell>
        <mxCell id="lNw_zsDrJID7kH2GZln8-20" style="edgeStyle=orthogonalEdgeStyle;rounded=0;orthogonalLoop=1;jettySize=auto;html=1;entryX=0.5;entryY=0;entryDx=0;entryDy=0;" edge="1" parent="1" source="lNw_zsDrJID7kH2GZln8-6" target="lNw_zsDrJID7kH2GZln8-19">
          <mxGeometry relative="1" as="geometry" />
        </mxCell>
        <mxCell id="lNw_zsDrJID7kH2GZln8-21" value="result [1] = -1" style="rounded=1;whiteSpace=wrap;html=1;absoluteArcSize=1;arcSize=14;strokeWidth=2;" vertex="1" parent="1">
          <mxGeometry x="690" y="490" width="100" height="38" as="geometry" />
        </mxCell>
        <mxCell id="lNw_zsDrJID7kH2GZln8-22" value="" style="strokeWidth=2;html=1;shape=mxgraph.flowchart.decision;whiteSpace=wrap;" vertex="1" parent="1">
          <mxGeometry x="855" y="660" width="50" height="40" as="geometry" />
        </mxCell>
        <mxCell id="lNw_zsDrJID7kH2GZln8-24" style="edgeStyle=orthogonalEdgeStyle;rounded=0;orthogonalLoop=1;jettySize=auto;html=1;entryX=0;entryY=0.5;entryDx=0;entryDy=0;entryPerimeter=0;" edge="1" parent="1" source="lNw_zsDrJID7kH2GZln8-21" target="lNw_zsDrJID7kH2GZln8-22">
          <mxGeometry relative="1" as="geometry">
            <Array as="points">
              <mxPoint x="740" y="680" />
            </Array>
          </mxGeometry>
        </mxCell>
        <mxCell id="lNw_zsDrJID7kH2GZln8-25" style="edgeStyle=orthogonalEdgeStyle;rounded=0;orthogonalLoop=1;jettySize=auto;html=1;entryX=0.5;entryY=0;entryDx=0;entryDy=0;entryPerimeter=0;" edge="1" parent="1" source="lNw_zsDrJID7kH2GZln8-17" target="lNw_zsDrJID7kH2GZln8-22">
          <mxGeometry relative="1" as="geometry">
            <Array as="points">
              <mxPoint x="940" y="640" />
              <mxPoint x="880" y="640" />
            </Array>
          </mxGeometry>
        </mxCell>
        <mxCell id="lNw_zsDrJID7kH2GZln8-26" style="edgeStyle=orthogonalEdgeStyle;rounded=0;orthogonalLoop=1;jettySize=auto;html=1;entryX=1;entryY=0.5;entryDx=0;entryDy=0;entryPerimeter=0;" edge="1" parent="1" source="lNw_zsDrJID7kH2GZln8-15" target="lNw_zsDrJID7kH2GZln8-22">
          <mxGeometry relative="1" as="geometry">
            <Array as="points">
              <mxPoint x="1215" y="680" />
            </Array>
          </mxGeometry>
        </mxCell>
        <mxCell id="lNw_zsDrJID7kH2GZln8-27" value="END" style="strokeWidth=2;html=1;shape=mxgraph.flowchart.start_1;whiteSpace=wrap;" vertex="1" parent="1">
          <mxGeometry x="830" y="740" width="100" height="60" as="geometry" />
        </mxCell>
        <mxCell id="lNw_zsDrJID7kH2GZln8-28" style="edgeStyle=orthogonalEdgeStyle;rounded=0;orthogonalLoop=1;jettySize=auto;html=1;exitX=0.5;exitY=1;exitDx=0;exitDy=0;exitPerimeter=0;entryX=0.5;entryY=0;entryDx=0;entryDy=0;entryPerimeter=0;" edge="1" parent="1" source="lNw_zsDrJID7kH2GZln8-22" target="lNw_zsDrJID7kH2GZln8-27">
          <mxGeometry relative="1" as="geometry" />
        </mxCell>
      </root>
    </mxGraphModel>
  </diagram>
</mxfile>
